<?xml version="1.0"?>
<svg xmlns="http://www.w3.org/2000/svg" xmlns:xlink="http://www.w3.org/1999/xlink" version="1.1" id="Capa_1" x="0px" y="0px" width="512px" height="512px" viewBox="0 0 472.545 472.545" style="enable-background:new 0 0 472.545 472.545;" xml:space="preserve" class=""><g><g>
	<path d="M87.809,282.267c-21.976,0-39.866,17.895-39.866,39.892c0,21.978,17.891,39.864,39.866,39.864   c22,0,39.885-17.887,39.885-39.864C127.694,300.161,109.809,282.267,87.809,282.267z M87.809,349.829   c-15.269,0-27.674-12.416-27.674-27.671c0-15.268,12.41-27.688,27.674-27.688c15.275,0,27.686,12.427,27.686,27.688   C115.494,337.413,103.078,349.829,87.809,349.829z M416.166,141.829c-4.629-6.219-11.034-7.62-15.236-7.62H300.599   c-0.241,0-0.461,0.049-0.69,0.07v113.531h-6.933v13.652H45.902c-12.625,0-22.857,10.222-22.857,22.852v2.03   c0,10.423,6.982,19.195,16.515,21.947c7.744-20.088,27.242-34.397,50.025-34.397c23.138,0,42.873,14.73,50.371,35.312h4.935   h155.018v-3.88c0.229,0.022,0.449,0.076,0.69,0.076h26.88c8.441-18.566,27.134-31.508,48.808-31.508   c21.67,0,40.373,12.947,48.802,31.508h39.846c4.193,0,7.611-3.414,7.611-7.622v-65.026L416.166,141.829z M429.37,220.56H322.956   c-4.213,0-7.625-3.406-7.625-7.625v-56.891c0-4.208,3.412-7.608,7.625-7.608h62.22c11.622,0,14.881,2.711,17.529,7.608   l34.288,56.891C436.993,217.154,433.581,220.56,429.37,220.56z M466.708,287.859c0,3.93-3.188,7.119-7.115,7.119   s-7.111-3.179-7.111-7.119v-13.461c0-3.923,3.184-7.113,7.111-7.113s7.115,3.185,7.115,7.113V287.859z M374.508,282.267   c-21.986,0-39.874,17.895-39.874,39.892c0,21.978,17.888,39.864,39.874,39.864c21.987,0,39.883-17.887,39.883-39.864   C414.391,300.161,396.5,282.267,374.508,282.267z M374.508,349.829c-15.259,0-27.671-12.416-27.671-27.671   c0-15.268,12.412-27.688,27.671-27.688c15.262,0,27.684,12.427,27.684,27.688C402.191,337.413,389.77,349.829,374.508,349.829z    M299.908,134.274v-23.751H0v137.281h292.976V141.829C292.976,137.851,296.034,134.622,299.908,134.274z M107.131,179.936   c0,1.437-0.866,2.725-2.192,3.28c-0.437,0.178-0.896,0.269-1.356,0.269c-0.924,0-1.826-0.359-2.504-1.043L74.876,156.25   c-1.377-1.387-1.377-3.631,0-5.018l26.202-26.198c1.008-1.021,2.535-1.321,3.861-0.774c1.321,0.556,2.192,1.844,2.192,3.278v11.617   h48.076c1.959,0,3.546,1.586,3.546,3.54v22.066c0,1.961-1.587,3.554-3.546,3.554h-48.076V179.936z M196.62,204.923l-26.189,26.201   c-0.679,0.677-1.587,1.042-2.512,1.042c-0.451,0-0.911-0.09-1.354-0.276c-1.321-0.547-2.192-1.836-2.192-3.277v-11.609h-48.076   c-1.957,0-3.547-1.585-3.547-3.548v-22.063c0-1.956,1.59-3.549,3.547-3.549h48.076v-11.608c0-1.436,0.862-2.725,2.192-3.277   c1.328-0.556,2.851-0.246,3.866,0.771l26.189,26.192C198.009,201.301,198.009,203.544,196.62,204.923z" data-original="#000000" class="active-path" data-old_color="#a1a1e5" fill="#a1a1e5"/>
</g></g> </svg>
